name Walk1.mot
datacolumns 19
datarows 15
range 1.33500000 1.40500000
endheader

                time	   L_ground_force_vx	   L_ground_force_vy	   L_ground_force_vz	   L_ground_force_px	   L_ground_force_py	   L_ground_force_pz	   R_ground_force_vx	   R_ground_force_vy	   R_ground_force_vz	   R_ground_force_px	   R_ground_force_py	   R_ground_force_pz	   L_ground_torque_x	   L_ground_torque_y	   L_ground_torque_z	   R_ground_torque_x	   R_ground_torque_y	   R_ground_torque_z	
          1.33500000	         -0.23254111	         -7.49879949	          0.38807313	         -0.00754940	          0.00000000	         -0.00046389	          0.00000000	         -0.00000000	          0.00000000	         -0.00000000	          0.00000000	         -0.00000000	          0.00000000	          0.00535330	          0.00000000	          0.00000000	          0.00000000	          0.00000000	
          1.34000000	          0.71543290	         13.94119316	         -0.36801113	         -0.18792033	          0.00000000	         -0.00834399	          0.00000000	         -0.00000000	         -0.00000000	         -0.00000000	          0.00000000	         -0.00000000	          0.00000000	         -0.02647989	          0.00000000	          0.00000000	          0.00000000	          0.00000000	
          1.34500000	          4.07135411	        107.06092218	         -4.61719630	         -0.46266514	          0.00000000	         -0.01943227	          0.00000000	         -0.00000000	         -0.00000000	          0.00000000	          0.00000000	          0.00000000	          0.00000000	         -0.12285741	          0.00000000	          0.00000000	          0.00000000	          0.00000000	
          1.35000000	          7.10869533	        238.04457909	        -12.57338183	         -0.56529836	          0.00000000	         -0.02249160	         -0.00000000	          0.00000000	         -0.00000000	          0.00000000	          0.00000000	          0.00000000	          0.00000000	         -0.23013841	          0.00000000	          0.00000000	         -0.00000000	          0.00000000	
          1.35500000	          1.99883578	        286.99918176	        -18.91384923	         -0.56312441	          0.00000000	         -0.02196507	         -0.00000000	          0.00000000	          0.00000000	          0.00000000	          0.00000000	          0.00000000	          0.00000000	         -0.22677751	          0.00000000	          0.00000000	         -0.00000000	          0.00000000	
          1.36000000	        -12.50021109	        264.50132410	        -19.29160704	         -0.54939315	          0.00000000	         -0.02209096	          0.00000000	         -0.00000000	          0.00000000	         -0.00000000	          0.00000000	         -0.00000000	          0.00000000	         -0.06777191	          0.00000000	          0.00000000	          0.00000000	          0.00000000	
          1.36500000	        -30.79655001	        260.59000850	        -15.88735059	         -0.54375550	          0.00000000	         -0.02278228	          0.00000000	         -0.00000000	          0.00000000	         -0.00000000	          0.00000000	         -0.00000000	          0.00000000	          0.24924073	          0.00000000	          0.00000000	          0.00000000	          0.00000000	
          1.37000000	        -49.33105297	        284.73712487	        -12.34669175	         -0.54204644	          0.00000000	         -0.02333845	          0.00000000	         -0.00000000	         -0.00000000	         -0.00000000	          0.00000000	         -0.00000000	          0.00000000	          0.66201000	          0.00000000	          0.00000000	          0.00000000	          0.00000000	
          1.37500000	        -63.24293179	        309.76191774	        -10.00934693	         -0.53988732	          0.00000000	         -0.02488417	         -0.00000000	          0.00000000	         -0.00000000	          0.00000000	          0.00000000	          0.00000000	          0.00000000	          0.96657595	          0.00000000	          0.00000000	         -0.00000000	          0.00000000	
          1.38000000	        -67.36595340	        332.96784478	         -6.66619594	         -0.53585459	          0.00000000	         -0.02786976	         -0.00000000	          0.00000000	         -0.00000000	          0.00000000	          0.00000000	          0.00000000	          0.00000000	          1.05040336	          0.00000000	          0.00000000	         -0.00000000	          0.00000000	
          1.38500000	        -63.25328443	        363.09552975	          0.23913736	         -0.53128969	          0.00000000	         -0.03056894	         -0.00000000	          0.00000000	          0.00000000	         -0.00000000	          0.00000000	         -0.00000000	          0.00000000	          0.98979984	          0.00000000	          0.00000000	         -0.00000000	          0.00000000	
          1.39000000	        -59.26154952	        394.97275447	          7.97448461	         -0.52772939	          0.00000000	         -0.03216074	          0.00000000	         -0.00000000	          0.00000000	         -0.00000000	          0.00000000	         -0.00000000	          0.00000000	          0.91554112	          0.00000000	          0.00000000	          0.00000000	          0.00000000	
          1.39500000	        -61.40181172	        417.63869100	         12.39716587	         -0.52488204	          0.00000000	         -0.03302166	          0.00000000	         -0.00000000	         -0.00000000	         -0.00000000	          0.00000000	         -0.00000000	          0.00000000	          0.87453386	          0.00000000	          0.00000000	          0.00000000	          0.00000000	
          1.40000000	        -68.89961036	        429.93159193	         14.60866342	         -0.52209194	          0.00000000	         -0.03380710	          0.00000000	         -0.00000000	         -0.00000000	          0.00000000	          0.00000000	          0.00000000	          0.00000000	          0.85417448	          0.00000000	          0.00000000	          0.00000000	          0.00000000	
          1.40500000	        -77.59272601	        441.96236157	         17.80036191	         -0.51916908	          0.00000000	         -0.03472209	         -0.00000000	          0.00000000	         -0.00000000	          0.00000000	          0.00000000	          0.00000000	          0.00000000	          0.80752175	          0.00000000	          0.00000000	         -0.00000000	          0.00000000	
